<?xml version="1.0" encoding="UTF-8" standalone="no"?><!DOCTYPE svg PUBLIC "-//W3C//DTD SVG 1.1//EN" "http://www.w3.org/Graphics/SVG/1.1/DTD/svg11.dtd"><!-- Generated by graphviz version 2.40.1 (20161225.0304)
 --><!-- Title: G Pages: 1 --><svg xmlns="http://www.w3.org/2000/svg" xmlns:xlink="http://www.w3.org/1999/xlink" width="456pt" height="707pt" viewBox="0.00 0.00 456.13 707.13">
<g id="graph0" class="graph" transform="scale(1 1) rotate(0) translate(4 703.1318)">
<title>G</title>
<polygon fill="#ffffff" stroke="transparent" points="-4,4 -4,-703.1318 452.1332,-703.1318 452.1332,4 -4,4"/>
<g id="clust1" class="cluster">
<title>cluster_0</title>
<polygon fill="#d3d3d3" stroke="#d3d3d3" points="8,-201.1368 8,-511.1318 222,-511.1318 222,-201.1368 8,-201.1368"/>
<text text-anchor="middle" x="115" y="-494.5318" font-family="Times,serif" font-size="14.00" fill="#000000">if p != p1</text>
</g>
<!-- line9 -->
<g id="node1" class="node">
<title>line9</title>
<ellipse fill="#ffffff" stroke="#ffffff" cx="149" cy="-460.3318" rx="30.1958" ry="18"/>
<text text-anchor="middle" x="149" y="-456.1318" font-family="Times,serif" font-size="14.00" fill="#000000">line9</text>
</g>
<!-- Line 10 Exception Function exit -->
<g id="node2" class="node">
<title>Line 10 Exception Function exit</title>
<polygon fill="#ffffff" stroke="#ffffff" points="213.6951,-406.4294 16.3049,-406.4294 16.3049,-209.0392 213.6951,-209.0392 213.6951,-406.4294"/>
<polyline fill="none" stroke="#ffffff" points="28.3049,-406.4294 16.3049,-394.4294 "/>
<polyline fill="none" stroke="#ffffff" points="16.3049,-221.0392 28.3049,-209.0392 "/>
<polyline fill="none" stroke="#ffffff" points="201.6951,-209.0392 213.6951,-221.0392 "/>
<polyline fill="none" stroke="#ffffff" points="213.6951,-394.4294 201.6951,-406.4294 "/>
<text text-anchor="middle" x="115" y="-303.5343" font-family="Times,serif" font-size="14.00" fill="#000000">Line 10 Exception Function exit</text>
</g>
<!-- line9&#45;&gt;Line 10 Exception Function exit -->
<g id="edge1" class="edge">
<title>line9-&gt;Line 10 Exception Function exit</title>
<path fill="none" stroke="#000000" d="M144.9662,-442.2276C143.3699,-435.0631 141.3981,-426.213 139.2339,-416.5001"/>
<polygon fill="#000000" stroke="#000000" points="142.6036,-415.5294 137.0125,-406.53 135.7711,-417.0518 142.6036,-415.5294"/>
</g>
<!-- line11listComprehension -->
<g id="node6" class="node">
<title>line11listComprehension</title>
<ellipse fill="none" stroke="#000000" cx="340" cy="-307.7343" rx="108.2666" ry="18"/>
<text text-anchor="middle" x="340" y="-303.5343" font-family="Times,serif" font-size="14.00" fill="#000000">line11listComprehension</text>
</g>
<!-- line9&#45;&gt;line11listComprehension -->
<g id="edge5" class="edge">
<title>line9-&gt;line11listComprehension</title>
<path fill="none" stroke="#000000" d="M169.3455,-446.8907C185.1074,-436.2815 207.3307,-420.8911 226,-406.3318 256.825,-382.2928 290.494,-352.7348 313.1913,-332.2847"/>
<polygon fill="#000000" stroke="#000000" points="315.6725,-334.7598 320.7394,-325.4551 310.976,-329.5691 315.6725,-334.7598"/>
</g>
<!-- def matmul(a,b): -->
<g id="node3" class="node">
<title>def matmul(a,b):</title>
<polygon fill="none" stroke="#000000" points="149,-699.1318 41.7368,-681.1318 149,-663.1318 256.2632,-681.1318 149,-699.1318"/>
<polyline fill="none" stroke="#000000" points="53.5713,-683.1178 53.5713,-679.1458 "/>
<polyline fill="none" stroke="#000000" points="137.1655,-665.1178 160.8345,-665.1178 "/>
<polyline fill="none" stroke="#000000" points="244.4287,-679.1458 244.4287,-683.1178 "/>
<polyline fill="none" stroke="#000000" points="160.8345,-697.1458 137.1655,-697.1458 "/>
<text text-anchor="middle" x="149" y="-676.9318" font-family="Times,serif" font-size="14.00" fill="#000000">def matmul(a,b):</text>
</g>
<!-- line7 -->
<g id="node4" class="node">
<title>line7</title>
<ellipse fill="none" stroke="#000000" cx="149" cy="-609.1318" rx="30.1958" ry="18"/>
<text text-anchor="middle" x="149" y="-604.9318" font-family="Times,serif" font-size="14.00" fill="#000000">line7</text>
</g>
<!-- def matmul(a,b):&#45;&gt;line7 -->
<g id="edge2" class="edge">
<title>def matmul(a,b):-&gt;line7</title>
<path fill="none" stroke="#000000" d="M149,-662.9632C149,-655.2628 149,-646.1061 149,-637.5484"/>
<polygon fill="#000000" stroke="#000000" points="152.5001,-637.545 149,-627.5451 145.5001,-637.5451 152.5001,-637.545"/>
</g>
<!-- line8 -->
<g id="node5" class="node">
<title>line8</title>
<ellipse fill="none" stroke="#000000" cx="149" cy="-537.1318" rx="30.1958" ry="18"/>
<text text-anchor="middle" x="149" y="-532.9318" font-family="Times,serif" font-size="14.00" fill="#000000">line8</text>
</g>
<!-- line7&#45;&gt;line8 -->
<g id="edge3" class="edge">
<title>line7-&gt;line8</title>
<path fill="none" stroke="#000000" d="M149,-590.9632C149,-583.2628 149,-574.1061 149,-565.5484"/>
<polygon fill="#000000" stroke="#000000" points="152.5001,-565.545 149,-555.5451 145.5001,-565.5451 152.5001,-565.545"/>
</g>
<!-- line8&#45;&gt;line9 -->
<g id="edge4" class="edge">
<title>line8-&gt;line9</title>
<path fill="none" stroke="#000000" d="M149,-518.9313C149,-509.845 149,-498.6494 149,-488.4867"/>
<polygon fill="#000000" stroke="#000000" points="152.5001,-488.4016 149,-478.4017 145.5001,-488.4017 152.5001,-488.4016"/>
</g>
<!-- line12forloop -->
<g id="node7" class="node">
<title>line12forloop</title>
<ellipse fill="none" stroke="#000000" cx="340" cy="-155.1368" rx="63.7064" ry="18"/>
<text text-anchor="middle" x="340" y="-150.9368" font-family="Times,serif" font-size="14.00" fill="#000000">line12forloop</text>
</g>
<!-- line11listComprehension&#45;&gt;line12forloop -->
<g id="edge6" class="edge">
<title>line11listComprehension-&gt;line12forloop</title>
<path fill="none" stroke="#000000" d="M340,-289.6301C340,-263.3589 340,-214.425 340,-183.3842"/>
<polygon fill="#000000" stroke="#000000" points="343.5001,-183.2174 340,-173.2174 336.5001,-183.2175 343.5001,-183.2174"/>
</g>
<!-- line 15 return c -->
<g id="node8" class="node">
<title>line 15 return c</title>
<polygon fill="none" stroke="#000000" points="390.6369,-101.2053 289.3631,-101.2053 289.3631,.0685 390.6369,.0685 390.6369,-101.2053"/>
<polyline fill="none" stroke="#000000" points="301.3631,-101.2053 289.3631,-89.2053 "/>
<polyline fill="none" stroke="#000000" points="289.3631,-11.9315 301.3631,.0685 "/>
<polyline fill="none" stroke="#000000" points="378.6369,.0685 390.6369,-11.9315 "/>
<polyline fill="none" stroke="#000000" points="390.6369,-89.2053 378.6369,-101.2053 "/>
<text text-anchor="middle" x="340" y="-46.3684" font-family="Times,serif" font-size="14.00" fill="#000000">line 15 return c</text>
</g>
<!-- line12forloop&#45;&gt;line 15 return c -->
<g id="edge7" class="edge">
<title>line12forloop-&gt;line 15 return c</title>
<path fill="none" stroke="#000000" d="M340,-136.9224C340,-129.6172 340,-120.7403 340,-111.4925"/>
<polygon fill="#000000" stroke="#000000" points="343.5001,-111.3688 340,-101.3689 336.5001,-111.3689 343.5001,-111.3688"/>
</g>
</g>
</svg>